<svg width="1359.003906" height="220.217773" viewBox="0 0 1359 220.218" fill="none" xmlns="http://www.w3.org/2000/svg" xmlns:xlink="http://www.w3.org/1999/xlink">
	<desc>
			Created with Pixso.
	</desc>
	<defs/>
	<path id="Union" d="M503.916 8.96851C481.636 3.00269 461.682 0 444.016 0L443.976 0C417.357 0 395.826 5.76831 379.382 17.3445C362.938 28.9207 350.082 47.4897 340.854 73.0918L339.632 73.0918L339.632 8.13892L279.73 8.13892L279.73 10.1934C314.236 16.4753 331.469 38.9165 331.469 77.5562L331.469 142.865C331.469 181.504 314.236 203.985 279.73 210.228L279.73 212.282L390.976 212.282L390.976 210.228C359.743 204.538 342.629 185.218 339.632 152.268L339.632 91.8584C358.402 44.7637 388.807 21.2163 430.923 21.2163C450.482 21.2163 467.006 25.7598 480.453 34.8865C493.9 44.0129 500.644 57.4065 500.644 75.1067L503.916 75.1067L503.916 8.96851ZM847.146 194.131C875.688 211.535 911.611 220.218 954.839 220.218C992.381 220.218 1022.5 214.337 1045.2 202.498C1067.9 190.698 1079.27 174.319 1079.27 153.363C1079.27 145.746 1077.65 139.234 1074.37 133.788C1071.1 128.342 1066.75 123.922 1061.31 120.528C1055.86 117.134 1048 114.292 1037.66 111.964C1027.32 109.675 1016.86 107.899 1006.24 106.675C995.617 105.452 981.762 104.189 964.629 102.808C926.534 100.085 900.085 96.0591 885.281 90.7708C870.478 85.4824 863.056 76.5632 863.056 64.0525C863.056 36.3083 894.321 22.4558 956.892 22.4558C1012.91 22.4558 1049.74 34.8086 1067.43 59.5535L1069.48 59.5535L1069.48 22.0217C1040.62 7.34058 1004.46 0 960.957 0C925.31 0 897.756 5.01221 878.333 15.0759C858.871 25.1396 849.16 40.0969 849.16 59.9482C849.16 72.1824 853.581 81.9304 862.424 89.1133C871.267 96.3354 883.426 101.505 898.939 104.623C914.454 107.741 935.93 110.148 963.405 111.766C1001.74 114.213 1028.26 118.081 1042.95 123.369C1057.63 128.658 1064.98 138.129 1064.98 151.706C1064.98 182.449 1030.59 197.801 961.786 197.801C906.046 197.801 868.504 185.449 849.199 160.704L847.146 160.704L847.146 194.131ZM220.218 148.792L220.218 114.213C220.218 76.9578 211.276 48.6216 193.355 29.165C175.434 9.7085 149.91 0 116.824 0C93.916 0 73.9268 4.9917 56.8564 14.9749C54.9082 16.1143 52.998 17.3188 51.125 18.5884C32.8105 30.9805 19.8516 49.2529 12.25 73.4453L15.9131 76.7209C31.0771 43.2937 63.7686 26.5603 113.988 26.5603C171.771 26.5603 203.95 51.9761 210.449 102.808L85.0781 102.808C28.3594 102.808 0 121.712 0 159.48C0 179.844 7.79883 195.078 23.3965 205.142C38.9941 215.166 58.1758 220.218 80.9814 220.218C113.279 220.218 141.363 213.745 165.232 200.84C188.727 188.099 204.093 170.731 211.293 148.661L211.293 212.278L271.803 212.278L271.803 210.274C271.803 210.274 224.413 203.875 220.221 148.792L220.218 148.792ZM1307.42 114.213L1307.42 148.829C1311.63 203.878 1359 210.274 1359 210.274L1359 212.278L1298.49 212.278L1298.49 148.678C1291.29 170.74 1275.93 188.102 1252.44 200.84C1228.57 213.745 1200.49 220.218 1168.19 220.218C1145.38 220.218 1126.2 215.166 1110.6 205.142C1095 195.078 1087.21 179.844 1087.21 159.48C1087.21 121.712 1115.57 102.808 1172.28 102.808L1297.66 102.808C1291.16 51.9761 1258.98 26.5603 1201.19 26.5603C1150.97 26.5603 1118.28 43.2937 1103.12 76.7209L1099.46 73.4453C1107.06 49.2529 1120.02 30.9805 1138.33 18.5884C1140.2 17.3188 1142.11 16.1143 1144.06 14.9749L1144.06 14.9744C1161.13 4.99146 1181.12 0 1204.03 0C1237.12 0 1262.64 9.7085 1280.56 29.165C1298.48 48.6216 1307.42 76.9578 1307.42 114.213ZM787.511 8.01343L787.511 142.664C787.511 181.282 804.729 203.75 839.206 209.99L839.206 212.043L779.354 212.043L779.354 147.166L776.912 147.166C755.753 195.853 720.055 220.217 669.817 220.217C636.681 220.217 611.582 210.582 594.481 191.233C577.381 171.924 568.831 143.493 568.831 105.941L568.831 77.3921C568.831 57.2539 563.748 41.696 553.582 30.679C543.416 19.6621 529.469 12.7915 511.855 10.0669L511.855 8.01343L577.42 8.01343L577.42 97.7673C577.42 161.697 608.232 193.642 669.857 193.642C721.71 193.642 758.196 171.766 779.395 127.936L779.395 68.3496C777.778 51.2124 771.986 37.9053 762.097 28.3494C752.168 18.833 739.086 12.7124 722.813 9.98779L722.813 7.93457L787.551 7.93457L787.511 8.01343ZM81.8477 193.736C119.03 193.736 149.95 187.303 174.646 174.359C199.342 161.454 211.671 144.128 211.671 122.383C211.671 116.937 211.513 112.872 211.276 110.148L84.6445 110.148C37.1426 110.148 13.4316 124.001 13.4316 151.745C13.4316 162.085 17.1729 170.57 24.6172 177.24C32.0615 183.909 40.5693 188.33 50.0625 190.5C59.5547 192.671 70.1494 193.776 81.8086 193.776L81.8477 193.736ZM1261.85 174.359C1237.16 187.303 1206.24 193.736 1169.05 193.736L1169.01 193.776C1157.36 193.776 1146.76 192.671 1137.27 190.5C1127.78 188.33 1119.27 183.909 1111.82 177.24C1104.38 170.57 1100.64 162.085 1100.64 151.745C1100.64 124.001 1124.35 110.148 1171.85 110.148L1298.48 110.148C1298.72 112.872 1298.88 116.937 1298.88 122.383C1298.88 144.128 1286.55 161.454 1261.85 174.359ZM211.631 147.838L211.631 147.601C211.607 147.677 211.583 147.754 211.56 147.83L211.631 147.838ZM1298.84 147.601L1298.84 147.838L1298.77 147.83L1298.84 147.601Z" clip-rule="evenodd" fill="#FCFDFD" fill-opacity="1.000000" fill-rule="evenodd"/>
</svg>
