<svg width="24.886719" height="8.916016" viewBox="0 0 24.8867 8.91602" fill="none" xmlns="http://www.w3.org/2000/svg" xmlns:xlink="http://www.w3.org/1999/xlink">
	<desc>
			Created with Pixso.
	</desc>
	<defs/>
	<path id="BAG" d="M23.18 1.74Q23.53 2.14 23.66 2.76L24.74 2.76C24.58 1.9 24.2 1.23 23.6 0.74C23 0.24 22.17 4.67e-5 21.13 4.67e-5Q20.26 4.64e-5 19.54 0.31Q19.28 0.42 19.05 0.57C18.45 0.95 17.98 1.48 17.65 2.16C17.31 2.83 17.14 3.59 17.14 4.45Q17.14 5.76 17.59 6.76C17.89 7.44 18.33 7.96 18.91 8.35C19.49 8.72 20.19 8.91 21.01 8.91C21.65 8.91 22.18 8.8 22.61 8.58C23.05 8.34 23.44 8 23.78 7.53L23.8 7.53L24.16 8.74L24.88 8.74L24.88 4.28L21.01 4.28L21.01 5.24L23.8 5.24C23.8 5.76 23.67 6.23 23.42 6.64Q23.23 6.96 22.97 7.21Q22.72 7.44 22.41 7.62C21.99 7.84 21.52 7.95 21.01 7.95Q19.98 7.95 19.35 7.45Q19.07 7.23 18.87 6.92C18.44 6.23 18.22 5.41 18.22 4.45Q18.22 3.92 18.34 3.43Q18.41 3.1 18.53 2.79C18.75 2.26 19.07 1.82 19.51 1.47C19.95 1.13 20.49 0.96 21.13 0.96C21.8 0.96 22.36 1.11 22.81 1.41Q23.02 1.55 23.18 1.74ZM5.99 3.34Q6.26 2.92 6.26 2.32Q6.26 1.77 6.02 1.34Q5.84 1 5.5 0.75C5.01 0.36 4.32 0.16 3.45 0.16L0 0.16L0 8.74L3.69 8.74Q5.04 8.74 5.82 8.08C6.34 7.64 6.6 7.03 6.6 6.25Q6.6 5.38 6.17 4.85Q6.15 4.82 6.13 4.8C5.82 4.43 5.42 4.2 4.93 4.12L4.93 4.1Q5.66 3.85 5.99 3.34ZM9.35 8.74L10.11 6.6L13.89 6.6L14.64 8.74L15.76 8.74L12.6 0.16L11.4 0.16L8.23 8.74L9.35 8.74ZM4.83 3.42C4.6 3.64 4.2 3.75 3.62 3.75L1.08 3.75L1.08 1.12L3.74 1.12Q4.46 1.12 4.82 1.48C5.06 1.72 5.18 2.04 5.18 2.44Q5.18 3.02 4.9 3.35Q4.86 3.38 4.83 3.42ZM12.01 1.16L13.54 5.64L10.47 5.64L11.99 1.16L12.01 1.16ZM3.8 7.78L1.08 7.78L1.08 4.71L4.04 4.71Q4.53 4.71 4.88 4.94Q5 5.02 5.11 5.13C5.38 5.41 5.52 5.78 5.52 6.25Q5.52 6.93 5.18 7.31Q4.75 7.78 3.8 7.78Z" fill="#FCFDFD" fill-opacity="1.000000" fill-rule="evenodd"/>
</svg>
