<svg width="80.000000" height="14.000000" viewBox="0 0 80 14" fill="none" xmlns="http://www.w3.org/2000/svg" xmlns:xlink="http://www.w3.org/1999/xlink">
	<desc>
			Created with Pixso.
	</desc>
	<defs/>
	<line id="Line 2" x1="0.000000" y1="2.000000" x2="27.000000" y2="2.000000" stroke="#FCFDFD" stroke-opacity="1.000000" stroke-width="1.000000"/>
	<line id="Line 3" x1="0.000000" y1="7.000000" x2="27.000000" y2="7.000000" stroke="#FCFDFD" stroke-opacity="1.000000" stroke-width="1.000000"/>
	<line id="Line 4" x1="0.000000" y1="12.000000" x2="27.000000" y2="12.000000" stroke="#FCFDFD" stroke-opacity="1.000000" stroke-width="1.000000"/>
	<path id="SHOP" d="M48.71 7.04C48.29 6.88 47.68 6.69 46.88 6.49C46.29 6.35 45.87 6.23 45.61 6.14C45.36 6.06 45.14 5.92 44.96 5.72Q44.7 5.42 44.7 4.88Q44.7 4.65 44.79 4.46Q44.91 4.21 45.18 4.03C45.51 3.82 45.97 3.71 46.56 3.71Q47.56 3.71 48.07 4.15C48.42 4.44 48.64 4.88 48.72 5.46L49.8 5.46Q49.72 4.49 49.21 3.85Q49.04 3.63 48.82 3.46Q48.77 3.41 48.71 3.38Q47.87 2.75 46.56 2.75Q45.16 2.75 44.39 3.36Q44.05 3.62 43.86 3.97Q43.62 4.42 43.62 5Q43.62 5.71 43.96 6.18Q43.99 6.22 44.03 6.26C44.3 6.58 44.63 6.82 45.02 6.98Q45.61 7.22 46.44 7.42C47.16 7.58 47.69 7.73 48.02 7.86Q48.53 8.04 48.76 8.35Q49 8.66 49 9.25Q49 9.56 48.88 9.82Q48.75 10.09 48.5 10.3C48.18 10.57 47.68 10.7 46.98 10.7Q45.71 10.7 45.07 10.14C44.65 9.76 44.4 9.26 44.34 8.62L43.26 8.62Q43.31 9.47 43.71 10.11Q43.76 10.19 43.81 10.27Q43.97 10.49 44.16 10.67Q44.57 11.07 45.13 11.32Q45.96 11.66 46.98 11.66Q48.02 11.66 48.72 11.34C49.18 11.12 49.52 10.82 49.74 10.45C49.96 10.08 50.08 9.68 50.08 9.25C50.08 8.64 49.95 8.16 49.7 7.81C49.46 7.47 49.12 7.21 48.71 7.04ZM64.13 11.26Q64.97 11.66 66 11.66Q67.06 11.66 67.91 11.24Q68.05 11.17 68.18 11.09C68.82 10.7 69.32 10.18 69.67 9.5C70.02 8.82 70.2 8.06 70.2 7.2C70.2 6.34 70.02 5.58 69.67 4.91C69.32 4.23 68.82 3.7 68.18 3.32C67.55 2.94 66.82 2.75 66 2.75Q64.97 2.75 64.13 3.15Q63.96 3.23 63.8 3.32C63.17 3.7 62.68 4.23 62.33 4.91C61.98 5.58 61.8 6.34 61.8 7.2Q61.8 8.45 62.3 9.45Q62.31 9.48 62.33 9.5C62.68 10.18 63.17 10.7 63.8 11.09Q63.96 11.18 64.13 11.26ZM53.59 6.56L53.59 2.92L52.51 2.92L52.51 11.5L53.59 11.5L53.59 7.52L58.17 7.52L58.17 11.5L59.25 11.5L59.25 2.92L58.17 2.92L58.17 6.56L53.59 6.56ZM76.1 2.92L72.69 2.92L72.69 11.5L73.77 11.5L73.77 7.91L76.1 7.91Q77.36 7.91 78.11 7.31C78.62 6.9 78.88 6.27 78.88 5.41C78.88 4.56 78.62 3.93 78.11 3.53Q77.36 2.92 76.1 2.92ZM67.73 10.24Q67.03 10.7 66 10.7Q64.97 10.7 64.26 10.24C63.8 9.92 63.45 9.49 63.22 8.96C62.99 8.43 62.88 7.84 62.88 7.2C62.88 6.56 62.99 5.98 63.22 5.45C63.45 4.92 63.8 4.5 64.26 4.19Q64.26 4.19 64.26 4.18Q64.97 3.71 66 3.71Q67.03 3.71 67.73 4.19C68.2 4.5 68.55 4.92 68.77 5.45C69 5.98 69.12 6.56 69.12 7.2C69.12 7.84 69 8.43 68.77 8.96C68.55 9.49 68.2 9.92 67.73 10.24ZM76.22 6.95L73.77 6.95L73.77 3.88L76.22 3.88Q77.02 3.88 77.4 4.26C77.67 4.51 77.8 4.89 77.8 5.41C77.8 5.93 77.67 6.32 77.4 6.58C77.15 6.82 76.75 6.95 76.22 6.95Z" fill="#FCFDFD" fill-opacity="1.000000" fill-rule="evenodd"/>
</svg>
