<svg width="117.250977" height="19.000000" viewBox="0 0 117.251 19" fill="none" xmlns="http://www.w3.org/2000/svg" xmlns:xlink="http://www.w3.org/1999/xlink">
	<desc>
			Created with Pixso.
	</desc>
	<defs/>
	<path id="Union" d="M19 12.8408L19 9.854C19 6.63965 18.2285 4.19482 16.6826 2.51611C15.1357 0.837402 12.9336 0 10.0791 0Q7.11426 0 4.90527 1.29199L4.90527 1.29199C4.7373 1.39014 4.57227 1.49414 4.41113 1.604C2.83105 2.67285 1.71289 4.24951 1.05664 6.33691L1.37305 6.61914C2.68164 3.73535 5.50195 2.2915 9.83496 2.2915C14.8203 2.2915 17.5967 4.48438 18.1572 8.87012L7.34082 8.87012C2.44727 8.87012 0 10.501 0 13.7598C0 15.5166 0.672852 16.8311 2.01855 17.6992C3.36426 18.564 5.01953 19 6.9873 19C9.77344 19 12.1963 18.4414 14.2559 17.3281C16.2822 16.229 17.6084 14.731 18.2295 12.8276L18.2295 18.3154L23.4502 18.3154L23.4502 18.1421C23.4502 18.1421 19.3633 17.5903 19 12.8408ZM73.0898 16.7495C75.5518 18.251 78.6514 19 82.3809 19C85.6201 19 88.2188 18.4927 90.1768 17.4712C92.1357 16.4531 93.1162 15.04 93.1162 13.2319C93.1162 12.5747 92.9766 12.0127 92.6943 11.543C92.4111 11.0732 92.0371 10.6919 91.5664 10.3989C91.0967 10.106 90.4189 9.86084 89.5264 9.66016C88.6348 9.4624 87.7314 9.30908 86.8154 9.20361C85.8994 9.09814 84.7041 8.98926 83.2256 8.87012C79.9385 8.63525 77.6572 8.2876 76.3799 7.83154C75.1025 7.37549 74.4619 6.60596 74.4619 5.52637C74.4619 3.13281 77.1592 1.9375 82.5576 1.9375C87.3916 1.9375 90.5693 3.00342 92.0947 5.13818L92.2715 5.13818L92.2715 1.8999C89.7822 0.633301 86.6621 0 82.9092 0C79.833 0 77.4561 0.432617 75.7803 1.30078C74.1016 2.16895 73.2637 3.45947 73.2637 5.17236C73.2637 6.22754 73.6445 7.06885 74.4072 7.68848C75.1709 8.31152 76.2197 8.75781 77.5586 9.02686C78.8965 9.2959 80.75 9.50342 83.1201 9.64307C86.4277 9.854 88.7158 10.188 89.9834 10.644C91.25 11.1006 91.8838 11.9175 91.8838 13.0889C91.8838 15.7412 88.917 17.0659 82.9805 17.0659C78.1709 17.0659 74.9326 16 73.2666 13.8652L73.0898 13.8652L73.0898 16.7495ZM112.801 9.854L112.801 12.8408C113.164 17.5903 117.251 18.1421 117.251 18.1421L117.251 18.3154L112.03 18.3154L112.03 12.8276C111.409 14.731 110.083 16.229 108.057 17.3281C105.997 18.4414 103.574 19 100.788 19C98.8203 19 97.165 18.564 95.8193 17.6992C94.4736 16.8311 93.8008 15.5166 93.8008 13.7598C93.8008 10.501 96.248 8.87012 101.142 8.87012L111.958 8.87012C111.397 4.48438 108.621 2.2915 103.636 2.2915C99.3027 2.2915 96.4824 3.73535 95.1738 6.61914L94.8574 6.33691C95.5137 4.24951 96.6318 2.67285 98.2119 1.604C98.373 1.49414 98.5381 1.39014 98.7061 1.29199C100.179 0.430664 101.903 0 103.88 0C106.734 0 108.937 0.837402 110.483 2.51611C112.029 4.19482 112.801 6.63965 112.801 9.854ZM43.4629 0.773926C41.54 0.259277 39.8184 0 38.2949 0L38.291 0C35.9941 0 34.1367 0.497559 32.7178 1.49658C31.2988 2.49512 30.1904 4.09717 29.3936 6.30615L29.2881 6.30615L29.2881 0.702148L24.1201 0.702148L24.1201 0.879395C27.0977 1.42139 28.584 3.35791 28.584 6.69141L28.584 12.3262C28.584 15.6602 27.0977 17.5996 24.1201 18.1382L24.1201 18.3154L33.7188 18.3154L33.7188 18.1382C31.0234 17.6475 29.5469 15.9805 29.2881 13.1377L29.2881 7.92529C30.9082 3.8623 33.5312 1.83057 37.165 1.83057C38.8525 1.83057 40.2783 2.22266 41.4385 3.00977C42.5986 3.79736 43.1807 4.95312 43.1807 6.47998L43.4629 6.47998L43.4629 0.773926ZM67.9453 0.691406L67.9453 12.3091C67.9453 15.6406 69.4307 17.5791 72.4053 18.1177L72.4053 18.2949L67.2412 18.2949L67.2412 12.6973L67.0303 12.6973C65.2051 16.8979 62.125 19 57.791 19C54.9316 19 52.7666 18.1685 51.291 16.4995Q49.0781 14.0005 49.0781 9.14062L49.0781 6.67725C49.0781 4.93994 48.6396 3.59766 47.7617 2.64697C46.8848 1.69629 45.6816 1.10352 44.1621 0.868652L44.1621 0.691406L49.8193 0.691406L49.8193 8.43506C49.8193 13.9512 52.4775 16.707 57.7939 16.707C62.2676 16.707 65.416 14.8198 67.2451 11.0381L67.2451 5.89697C67.1055 4.41846 66.6055 3.27051 65.7529 2.4458C64.8955 1.625 63.7676 1.09668 62.3633 0.861816L62.3633 0.68457L67.9482 0.68457L67.9453 0.691406ZM7.06152 16.7153C10.2695 16.7153 12.9375 16.1602 15.0684 15.0435C17.1992 13.9302 18.2627 12.4351 18.2627 10.5591C18.2627 10.0889 18.249 9.73828 18.2285 9.50342L7.30273 9.50342C3.20508 9.50342 1.15918 10.6987 1.15918 13.0923C1.15918 13.9844 1.48145 14.7163 2.12402 15.292C2.7666 15.8672 3.5 16.2485 4.31934 16.436C5.13867 16.6235 6.05273 16.7188 7.05859 16.7188L7.06152 16.7153ZM108.869 15.0435C106.738 16.1602 104.07 16.7153 100.862 16.7153L100.859 16.7188C99.8535 16.7188 98.9395 16.6235 98.1201 16.436C97.3008 16.2485 96.5674 15.8672 95.9248 15.292C95.2822 14.7163 94.96 13.9844 94.96 13.0923C94.96 10.6987 97.0059 9.50342 101.104 9.50342L112.029 9.50342C112.05 9.73828 112.063 10.0889 112.063 10.5591C112.063 12.4351 111 13.9302 108.869 15.0435ZM18.2588 12.7554L18.2588 12.7349C18.2568 12.7412 18.2549 12.748 18.2529 12.7549L18.2588 12.7554ZM112.06 12.7349L112.06 12.7554L112.054 12.7549C112.056 12.748 112.058 12.7412 112.06 12.7349Z" clip-rule="evenodd" fill="#FCFDFD" fill-opacity="1.000000" fill-rule="evenodd"/>
</svg>
